<svg width="33" height="33" viewBox="0 0 33 33" fill="none" xmlns="http://www.w3.org/2000/svg">
  <path
    d="M10.3125 11C11.4065 11 12.4557 10.5654 13.2293 9.79182C14.0029 9.01823 14.4375 7.96902 14.4375 6.875C14.4375 5.78098 14.0029 4.73177 13.2293 3.95818C12.4557 3.1846 11.4065 2.75 10.3125 2.75C9.21848 2.75 8.16927 3.1846 7.39568 3.95818C6.6221 4.73177 6.1875 5.78098 6.1875 6.875C6.1875 7.96902 6.6221 9.01823 7.39568 9.79182C8.16927 10.5654 9.21848 11 10.3125 11ZM2.75 14.806C2.75 13.4612 3.83762 12.375 5.181 12.375H11.7356C11.2522 13.2107 10.9984 14.1595 11 15.125C10.9991 15.9054 11.1647 16.6771 11.4857 17.3884C11.8068 18.0998 12.2759 18.7344 12.8617 19.25H11.3685C10.5935 19.25 9.83704 19.4865 9.19998 19.9277C8.56292 20.369 8.07562 20.994 7.80313 21.7195C5.74338 21.2162 4.466 20.0929 3.71387 18.8416C2.75 17.237 2.75 15.587 2.75 15.2996V14.806ZM22 15.125C22.0017 14.1595 21.7479 13.2107 21.2644 12.375H27.819C29.1637 12.375 30.25 13.4626 30.25 14.806V15.301C30.25 15.5856 30.25 17.237 29.2875 18.8416C28.534 20.0929 27.2566 21.2162 25.1969 21.7195C24.9245 20.9939 24.4373 20.3687 23.8002 19.9275C23.1631 19.4862 22.4065 19.2498 21.6315 19.25H20.1383C20.7241 18.7344 21.1932 18.0998 21.5143 17.3884C21.8353 16.6771 22.0009 15.9054 22 15.125ZM26.8125 6.875C26.8125 7.96902 26.3779 9.01823 25.6043 9.79182C24.8307 10.5654 23.7815 11 22.6875 11C21.5935 11 20.5443 10.5654 19.7707 9.79182C18.9971 9.01823 18.5625 7.96902 18.5625 6.875C18.5625 5.78098 18.9971 4.73177 19.7707 3.95818C20.5443 3.1846 21.5935 2.75 22.6875 2.75C23.7815 2.75 24.8307 3.1846 25.6043 3.95818C26.3779 4.73177 26.8125 5.78098 26.8125 6.875ZM8.9375 23.056C8.9375 21.7113 10.0251 20.625 11.3685 20.625H21.6315C22.9749 20.625 24.0625 21.7126 24.0625 23.056V23.551C24.0625 23.8356 24.0625 25.487 23.1 27.0916C22.0784 28.7884 20.0929 30.25 16.5 30.25C12.9071 30.25 10.9202 28.7884 9.9 27.0916C8.9375 25.487 8.9375 23.837 8.9375 23.5496V23.056ZM16.5 19.25C17.0417 19.25 17.5781 19.1433 18.0786 18.936C18.579 18.7287 19.0338 18.4249 19.4168 18.0418C19.7999 17.6588 20.1037 17.204 20.311 16.7036C20.5183 16.2031 20.625 15.6667 20.625 15.125C20.625 14.5833 20.5183 14.0469 20.311 13.5464C20.1037 13.046 19.7999 12.5912 19.4168 12.2082C19.0338 11.8251 18.579 11.5213 18.0786 11.314C17.5781 11.1067 17.0417 11 16.5 11C15.406 11 14.3568 11.4346 13.5832 12.2082C12.8096 12.9818 12.375 14.031 12.375 15.125C12.375 16.219 12.8096 17.2682 13.5832 18.0418C14.3568 18.8154 15.406 19.25 16.5 19.25Z"
    fill="#007D99" />
</svg>