<svg width="27" height="26" viewBox="0 0 27 26" fill="none" xmlns="http://www.w3.org/2000/svg">
  <path
    d="M14.0633 0.208057C13.9064 0.0737849 13.7066 0 13.5 0C13.2934 0 13.0936 0.0737849 12.9367 0.208057L0.5 10.8681V23.4001C0.5 24.0896 0.773928 24.7509 1.26152 25.2385C1.74912 25.7261 2.41044 26.0001 3.1 26.0001H10.0333C10.2632 26.0001 10.4836 25.9087 10.6462 25.7462C10.8087 25.5837 10.9 25.3632 10.9 25.1334V19.9334C10.9 19.2438 11.1739 18.5825 11.6615 18.0949C12.1491 17.6073 12.8104 17.3334 13.5 17.3334C14.1896 17.3334 14.8509 17.6073 15.3385 18.0949C15.8261 18.5825 16.1 19.2438 16.1 19.9334V25.1334C16.1 25.3632 16.1913 25.5837 16.3538 25.7462C16.5164 25.9087 16.7368 26.0001 16.9667 26.0001H23.9C24.5896 26.0001 25.2509 25.7261 25.7385 25.2385C26.2261 24.7509 26.5 24.0896 26.5 23.4001V10.8681L14.0633 0.208057Z"
    fill="white" />
</svg>