<svg width="33" height="33" viewBox="0 0 33 33" fill="none" xmlns="http://www.w3.org/2000/svg">
  <path
    d="M31.4875 29.15L25.85 23.5125C26.4 22.1375 26.125 20.35 24.8875 19.25C23.65 18.0125 21.8625 17.7375 20.35 18.425L22.9625 21.0375L21.0375 22.9625L18.2875 20.2125C17.6 21.725 17.875 23.5125 19.1125 24.8875C20.35 26.125 22 26.4 23.375 25.85L29.0125 31.4875C29.2875 31.7625 29.7 31.7625 29.8375 31.4875L31.2125 30.1125C31.625 29.7 31.625 29.2875 31.4875 29.15ZM17.875 27.5H2.75V24.75C2.75 21.725 7.7 19.25 13.75 19.25C14.4375 19.25 15.125 19.25 15.675 19.3875C15.2625 20.2125 15.125 21.0375 15.125 22C15.125 24.2 16.225 26.2625 17.875 27.5ZM13.75 5.5C10.725 5.5 8.25 7.975 8.25 11C8.25 14.025 10.725 16.5 13.75 16.5C16.775 16.5 19.25 14.025 19.25 11C19.25 7.975 16.775 5.5 13.75 5.5Z"
    fill="#007D99" />
</svg>