<svg width="27" height="27" viewBox="0 0 27 27" fill="none" xmlns="http://www.w3.org/2000/svg">
  <path
    d="M11.5636 0V15.6143H15.4363V0H11.5636ZM3.95343 3.95343C1.5104 6.39646 0 9.77207 0 13.5C0 20.9558 6.04415 27 13.5 27C20.9558 27 27 20.9558 27 13.5C27 9.77207 25.4896 6.39646 23.0466 3.95343L20.3274 6.67255C22.0748 8.41986 23.1553 10.834 23.1553 13.5C23.1553 18.8321 18.8321 23.1553 13.5 23.1553C8.16793 23.1553 3.84466 18.8321 3.84466 13.5C3.84466 10.834 4.92523 8.41986 6.67255 6.67255L3.95343 3.95343Z"
    fill="#007D99" />
</svg>