<svg width="75" height="75" viewBox="0 0 41 41" fill="none" xmlns="http://www.w3.org/2000/svg">
  <path fill-rule="evenodd" clip-rule="evenodd"
    d="M20.5 41C31.8221 41 41 31.8221 41 20.5C41 9.17785 31.8221 0 20.5 0C9.17785 0 0 9.17785 0 20.5C0 31.8221 9.17785 41 20.5 41ZM20.5 14.35C21.5874 14.35 22.6302 13.918 23.3991 13.1491C24.168 12.3802 24.6 11.3374 24.6 10.25C24.6 9.16261 24.168 8.11976 23.3991 7.35086C22.6302 6.58196 21.5874 6.15 20.5 6.15C19.4126 6.15 18.3698 6.58196 17.6009 7.35086C16.832 8.11976 16.4 9.16261 16.4 10.25C16.4 11.3374 16.832 12.3802 17.6009 13.1491C18.3698 13.918 19.4126 14.35 20.5 14.35ZM8.80065 14.9855C8.42828 14.841 8.01428 14.847 7.64629 15.0024C7.2783 15.1577 6.98522 15.4502 6.8291 15.8179C6.67298 16.1855 6.66607 16.5995 6.80983 16.9722C6.9536 17.3449 7.23675 17.6469 7.59935 17.8145L7.60345 17.8165L7.60755 17.8186L7.62805 17.8268L7.69365 17.8555C8.08133 18.0172 8.47228 18.171 8.86625 18.3168C9.64525 18.614 10.74 19.0096 11.9966 19.4032C14.022 20.0428 16.5804 20.7153 18.9625 20.9367V23.4786C18.9625 24.3601 18.7083 25.2273 18.2306 25.9714L13.0565 34.0177C12.9472 34.1876 12.8724 34.3773 12.8364 34.5761C12.8004 34.7748 12.804 34.9787 12.8468 35.1762C12.8896 35.3736 12.9709 35.5606 13.086 35.7266C13.2011 35.8926 13.3478 36.0343 13.5177 36.1436C13.6876 36.2528 13.8773 36.3276 14.0761 36.3636C14.2748 36.3996 14.4787 36.396 14.6762 36.3532C14.8736 36.3104 15.0606 36.2291 15.2266 36.114C15.3926 35.9988 15.5342 35.8522 15.6435 35.6823L20.5021 28.126L25.3565 35.6823C25.4657 35.8522 25.6074 35.9988 25.7734 36.114C25.9394 36.2291 26.1264 36.3104 26.3238 36.3532C26.5213 36.396 26.7252 36.3996 26.9239 36.3636C27.1227 36.3276 27.3124 36.2528 27.4823 36.1436C27.6522 36.0343 27.7989 35.8926 27.914 35.7266C28.0291 35.5606 28.1104 35.3736 28.1532 35.1762C28.196 34.9787 28.1996 34.7748 28.1636 34.5761C28.1276 34.3773 28.0528 34.1876 27.9435 34.0177L22.7694 25.9714C22.2912 25.2272 22.0372 24.3612 22.0375 23.4766V20.9367C24.4196 20.7153 26.978 20.0428 29.0054 19.4032C30.4591 18.9446 31.8938 18.4283 33.3063 17.8555L33.374 17.8268L33.3945 17.8186L33.3986 17.8165C33.7674 17.6531 34.0571 17.3513 34.2054 16.9761C34.3537 16.601 34.3486 16.1826 34.1913 15.8112C34.034 15.4398 33.737 15.1451 33.3643 14.9906C32.9917 14.8362 32.5733 14.8343 32.1994 14.9855L32.185 14.9916L32.1296 15.0142L31.9041 15.1065C30.6478 15.6088 29.3732 16.0643 28.083 16.4717C25.6681 17.2302 22.7775 17.9375 20.5 17.9375C18.2224 17.9375 15.334 17.2302 12.9191 16.4717C11.5515 16.0394 10.2016 15.5531 8.8724 15.0142L8.815 14.9916L8.80065 14.9855Z"
    fill="#007D99" />
</svg>