<svg width="5" height="24" viewBox="0 0 5 24" fill="none" xmlns="http://www.w3.org/2000/svg">
  <g clip-path="url(#clip0_29_523)">
    <path
      d="M5.21698 12C5.21698 12.6917 4.94221 13.355 4.45311 13.8441C3.96402 14.3332 3.30066 14.608 2.60898 14.608C1.91729 14.608 1.25394 14.3332 0.764842 13.8441C0.275747 13.355 0.000976563 12.6917 0.000976562 12C0.000976562 11.3083 0.275747 10.645 0.764842 10.1559C1.25394 9.66677 1.91729 9.392 2.60898 9.392C3.30066 9.392 3.96402 9.66677 4.45311 10.1559C4.94221 10.645 5.21698 11.3083 5.21698 12ZM5.21698 2.608C5.21698 3.29968 4.94221 3.96304 4.45311 4.45213C3.96402 4.94123 3.30066 5.216 2.60898 5.216C1.91729 5.216 1.25394 4.94123 0.764842 4.45213C0.275747 3.96304 0.000976563 3.29968 0.000976562 2.608C0.000976562 1.91632 0.275747 1.25296 0.764842 0.763866C1.25394 0.274771 1.91729 0 2.60898 0C3.30066 0 3.96402 0.274771 4.45311 0.763866C4.94221 1.25296 5.21698 1.91632 5.21698 2.608ZM5.21698 21.391C5.21698 22.0827 4.94221 22.746 4.45311 23.2351C3.96402 23.7242 3.30066 23.999 2.60898 23.999C1.91729 23.999 1.25394 23.7242 0.764842 23.2351C0.275747 22.746 0.000976563 22.0827 0.000976562 21.391C0.000976562 20.6993 0.275747 20.036 0.764842 19.5469C1.25394 19.0578 1.91729 18.783 2.60898 18.783C3.30066 18.783 3.96402 19.0578 4.45311 19.5469C4.94221 20.036 5.21698 20.6993 5.21698 21.391Z"
      fill="#007D99" />
  </g>
  <defs>
    <clipPath id="clip0_29_523">
      <rect width="5" height="24" fill="white" />
    </clipPath>
  </defs>
</svg>