<svg width="16" height="15" viewBox="0 0 16 15" fill="none" xmlns="http://www.w3.org/2000/svg">
  <path
    d="M7 8.90625C6.90114 8.90621 6.80452 8.87869 6.72234 8.82718C6.64015 8.77567 6.5761 8.70248 6.53828 8.61685C6.50045 8.53123 6.49055 8.43701 6.50983 8.34611C6.5291 8.25521 6.57668 8.17171 6.64656 8.10615L11.5822 3.479C11.3268 3.34898 11.0407 3.281 10.75 3.28125H3.25C2.78602 3.28172 2.34119 3.45472 2.01311 3.76229C1.68503 4.06987 1.5005 4.4869 1.5 4.92188V11.9531C1.5005 12.3881 1.68503 12.8051 2.01311 13.1127C2.34119 13.4203 2.78602 13.5933 3.25 13.5938H10.75C11.214 13.5933 11.6588 13.4203 11.9869 13.1127C12.315 12.8051 12.4995 12.3881 12.5 11.9531V4.92188C12.5003 4.64939 12.4278 4.38117 12.2891 4.1417L7.35344 8.76885C7.30711 8.81249 7.25203 8.8471 7.19137 8.87068C7.13071 8.89426 7.06567 8.90635 7 8.90625Z"
    fill="#007D99" />
  <path
    d="M14 1.40625H10.5C10.3674 1.40625 10.2402 1.45564 10.1464 1.54354C10.0527 1.63145 10 1.75068 10 1.875C10 1.99932 10.0527 2.11855 10.1464 2.20646C10.2402 2.29436 10.3674 2.34375 10.5 2.34375H12.7928L11.5822 3.479C11.8812 3.63125 12.1267 3.86142 12.2891 4.1417L13.5 3.00674V5.15625C13.5 5.28057 13.5527 5.3998 13.6464 5.48771C13.7402 5.57561 13.8674 5.625 14 5.625C14.1326 5.625 14.2598 5.57561 14.3536 5.48771C14.4473 5.3998 14.5 5.28057 14.5 5.15625V1.875C14.5 1.75068 14.4473 1.63145 14.3536 1.54354C14.2598 1.45564 14.1326 1.40625 14 1.40625Z"
    fill="#007D99" />
</svg>