<svg width="19" height="18" viewBox="0 0 23 22" fill="none" xmlns="http://www.w3.org/2000/svg">
  <path
    d="M20.0016 19.25L14.4901 13.75M3.46706 9.16667C3.46706 10.0093 3.63338 10.8437 3.95652 11.6222C4.27966 12.4007 4.7533 13.1081 5.35039 13.7039C5.94748 14.2998 6.65632 14.7724 7.43646 15.0949C8.21659 15.4174 9.05274 15.5833 9.89715 15.5833C10.7416 15.5833 11.5777 15.4174 12.3578 15.0949C13.138 14.7724 13.8468 14.2998 14.4439 13.7039C15.041 13.1081 15.5146 12.4007 15.8378 11.6222C16.1609 10.8437 16.3272 10.0093 16.3272 9.16667C16.3272 8.32402 16.1609 7.48962 15.8378 6.71111C15.5146 5.93261 15.041 5.22524 14.4439 4.6294C13.8468 4.03356 13.138 3.56091 12.3578 3.23844C11.5777 2.91597 10.7416 2.75 9.89715 2.75C9.05274 2.75 8.21659 2.91597 7.43646 3.23844C6.65632 3.56091 5.94748 4.03356 5.35039 4.6294C4.7533 5.22524 4.27966 5.93261 3.95652 6.71111C3.63338 7.48962 3.46706 8.32402 3.46706 9.16667Z"
    stroke="#007D99" stroke-width="2" stroke-linecap="round" stroke-linejoin="round" />
</svg>