<svg width="29" height="29" viewBox="0 0 29 29" fill="none" xmlns="http://www.w3.org/2000/svg">
  <path fill-rule="evenodd" clip-rule="evenodd"
    d="M10.875 3.89444C10.8749 3.62077 10.9678 3.35518 11.1384 3.14116C11.3089 2.92713 11.5471 2.77735 11.8139 2.71632C13.5817 2.31376 15.4175 2.31458 17.1849 2.71874C17.4519 2.77953 17.6904 2.92921 17.8612 3.14326C18.032 3.35731 18.125 3.62302 18.125 3.89686V6.12865C18.125 6.34076 18.1808 6.54912 18.2869 6.73281C18.3929 6.91649 18.5455 7.06903 18.7292 7.17508C18.9129 7.28113 19.1212 7.33696 19.3333 7.33696C19.5454 7.33695 19.7538 7.28112 19.9375 7.17507L21.872 6.05736C22.1094 5.92037 22.3862 5.86811 22.6572 5.90917C22.9281 5.95023 23.177 6.08216 23.3631 6.28332C24.5929 7.61393 25.5098 9.20252 26.0468 10.933C26.1279 11.1947 26.1177 11.4762 26.0178 11.7313C25.9179 11.9864 25.7343 12.2 25.497 12.3371L23.5625 13.4536C23.3788 13.5596 23.2263 13.7122 23.1203 13.8958C23.0142 14.0795 22.9584 14.2879 22.9584 14.5C22.9584 14.7121 23.0142 14.9204 23.1203 15.1041C23.2263 15.2878 23.3788 15.4403 23.5625 15.5464L25.4958 16.6617C25.7328 16.7987 25.9163 17.0121 26.0162 17.2669C26.116 17.5218 26.1264 17.803 26.0456 18.0646C25.5123 19.7974 24.5954 21.3879 23.3631 22.7179C23.1769 22.9188 22.9279 23.0505 22.6569 23.0914C22.386 23.1322 22.1092 23.0798 21.872 22.9426L19.9375 21.8249C19.7538 21.7189 19.5454 21.663 19.3333 21.663C19.1212 21.663 18.9129 21.7188 18.7292 21.8249C18.5455 21.9309 18.3929 22.0835 18.2869 22.2672C18.1808 22.4508 18.125 22.6592 18.125 22.8713V25.1067C18.1247 25.3804 18.0316 25.6458 17.8608 25.8596C17.69 26.0734 17.4517 26.2229 17.1849 26.2837C15.4171 26.6862 13.5813 26.6853 11.8139 26.2812C11.5471 26.2202 11.3089 26.0704 11.1384 25.8564C10.9678 25.6424 10.8749 25.3768 10.875 25.1031V22.8713C10.875 22.6592 10.8192 22.4508 10.7131 22.2672C10.607 22.0835 10.4545 21.9309 10.2708 21.8249C10.0871 21.7188 9.87876 21.663 9.66665 21.663C9.45455 21.663 9.24618 21.7189 9.06249 21.8249L7.12795 22.9426C6.89062 23.0796 6.61377 23.1319 6.34283 23.0908C6.07189 23.0497 5.82296 22.9178 5.63687 22.7167C5.02382 22.0536 4.4868 21.324 4.03583 20.5417C3.58384 19.7597 3.22069 18.9296 2.95316 18.067C2.87204 17.8053 2.88227 17.5238 2.98217 17.2687C3.08207 17.0135 3.2657 16.7999 3.50295 16.6629L5.43629 15.5464C5.61996 15.4403 5.77249 15.2878 5.87853 15.1041C5.98457 14.9204 6.0404 14.7121 6.0404 14.5C6.0404 14.2879 5.98457 14.0795 5.87853 13.8958C5.77249 13.7122 5.61996 13.5596 5.43629 13.4536L3.50537 12.3383C3.26816 12.2015 3.08444 11.9882 2.98434 11.7333C2.88423 11.4784 2.87366 11.1971 2.95437 10.9354C3.48789 9.20296 4.40475 7.61293 5.63687 6.28332C5.82288 6.08245 6.07159 5.95069 6.34227 5.90964C6.61294 5.86859 6.88954 5.92067 7.12674 6.05736L9.06249 7.17507C9.24618 7.28112 9.45455 7.33695 9.66665 7.33696C9.87876 7.33696 10.0871 7.28113 10.2708 7.17508C10.4545 7.06903 10.607 6.91649 10.7131 6.73281C10.8192 6.54912 10.875 6.34076 10.875 6.12865V3.89324V3.89444ZM14.5 18.125C15.4614 18.125 16.3834 17.7431 17.0633 17.0632C17.7431 16.3834 18.125 15.4614 18.125 14.5C18.125 13.5386 17.7431 12.6165 17.0633 11.9367C16.3834 11.2569 15.4614 10.875 14.5 10.875C13.5386 10.875 12.6166 11.2569 11.9367 11.9367C11.2569 12.6165 10.875 13.5386 10.875 14.5C10.875 15.4614 11.2569 16.3834 11.9367 17.0632C12.6166 17.7431 13.5386 18.125 14.5 18.125Z"
    fill="#007D99" />
</svg>